<svg width="4151" height="978" viewBox="0 0 4151 978" fill="none" xmlns="http://www.w3.org/2000/svg">
<g clip-path="url(#clip0_27_46)">
<path d="M0 161C0 72.0821 72.0822 0 161 0H817C905.918 0 978 72.0822 978 161V817C978 905.918 905.918 978 817 978H161C72.0821 978 0 905.918 0 817V161Z" fill="#0EA5E9"/>
<path d="M280.5 312.251C297.808 277.87 305.195 270.32 316.482 275.462C329.036 281.183 334.06 294.882 347.803 360.838C354.845 394.625 362.898 433.078 365.702 446.29C368.502 459.502 370.797 470.952 370.798 471.741C370.812 472.526 422.938 473.169 486.644 473.169H602.489L611.619 426.372C629.538 334.497 641.8 310.569 658.925 334.08C668.692 347.494 678.87 342.934 690.896 319.749C698.903 304.307 702.278 300.756 708.952 300.756C723.167 300.757 735.368 324.259 752.551 384.737C760.978 414.408 770.187 446.447 773.014 455.928L778.148 473.169H816.872C838.168 473.17 856.458 474.037 857.52 475.094C860.65 478.234 840.585 520.024 831.242 529.82C812.023 549.974 791.754 534.601 780.949 491.672L777.118 476.454H604.859L584.465 579.081C556.027 722.172 552.337 737.172 543.099 747.142C533.391 757.621 531.309 757.638 519.073 747.336C512.402 741.724 504.348 727.26 493.925 702.18C453.366 604.579 439.003 583.823 419.987 595.343C413.651 599.186 412.048 598.528 403.749 588.693C393.555 576.611 384.058 548.774 375.253 505.189L369.451 476.454H122V476.001H120V466.668L128.163 414.454C135.192 369.495 138.485 355.981 143.686 350.779C153.223 341.242 159.133 345.384 166.874 367.032C183.778 414.295 193.772 421.15 204.323 392.711C207.672 383.68 214.172 371.354 218.769 365.325C226.185 355.588 228.369 354.592 238.241 356.444C252.742 359.166 261.485 350.023 280.5 312.251Z" fill="white"/>
<path d="M1291.33 770H1182.89L1380.32 209.201H1505.74L1703.44 770H1595L1445.22 324.209H1440.84L1291.33 770ZM1294.89 550.116H1590.62V631.717H1294.89V550.116ZM1979.31 593.107V349.401H2078.44V770H1982.33V695.245H1977.94C1968.45 718.794 1952.84 738.053 1931.12 753.023C1909.58 767.992 1883.02 775.477 1851.44 775.477C1823.87 775.477 1799.5 769.361 1778.32 757.13C1757.33 744.717 1740.9 726.735 1729.04 703.186C1717.17 679.454 1711.24 650.794 1711.24 617.204V349.401H1810.36V601.87C1810.36 628.522 1817.66 649.698 1832.27 665.398C1846.87 681.097 1866.04 688.947 1889.77 688.947C1904.38 688.947 1918.52 685.387 1932.22 678.268C1945.91 671.148 1957.13 660.56 1965.9 646.504C1974.84 632.265 1979.31 614.466 1979.31 593.107ZM2328.71 349.401V426.073H2086.92V349.401H2328.71ZM2146.61 248.632H2245.74V643.492C2245.74 656.818 2247.75 667.041 2251.76 674.16C2255.96 681.097 2261.44 685.844 2268.19 688.399C2274.95 690.955 2282.43 692.233 2290.65 692.233C2296.85 692.233 2302.51 691.777 2307.62 690.864C2312.92 689.951 2316.93 689.13 2319.67 688.399L2336.38 765.893C2331.08 767.718 2323.51 769.726 2313.65 771.917C2303.97 774.107 2292.11 775.385 2278.05 775.75C2253.22 776.481 2230.86 772.738 2210.96 764.523C2191.07 756.126 2175.27 743.165 2163.59 725.64C2152.09 708.115 2146.43 686.209 2146.61 659.921V248.632ZM2528.87 778.215C2487.79 778.215 2452.2 769.179 2422.08 751.106C2391.96 733.033 2368.59 707.75 2351.98 675.256C2335.55 642.761 2327.33 604.791 2327.33 561.343C2327.33 517.896 2335.55 479.834 2351.98 447.157C2368.59 414.48 2391.96 389.106 2422.08 371.033C2452.2 352.961 2487.79 343.924 2528.87 343.924C2569.94 343.924 2605.54 352.961 2635.66 371.033C2665.78 389.106 2689.06 414.48 2705.49 447.157C2722.1 479.834 2730.41 517.896 2730.41 561.343C2730.41 604.791 2722.1 642.761 2705.49 675.256C2689.06 707.75 2665.78 733.033 2635.66 751.106C2605.54 769.179 2569.94 778.215 2528.87 778.215ZM2529.42 698.805C2551.69 698.805 2570.31 692.689 2585.28 680.458C2600.25 668.045 2611.38 651.433 2618.68 630.622C2626.17 609.811 2629.91 586.627 2629.91 561.07C2629.91 535.33 2626.17 512.054 2618.68 491.244C2611.38 470.25 2600.25 453.547 2585.28 441.133C2570.31 428.72 2551.69 422.513 2529.42 422.513C2506.6 422.513 2487.61 428.72 2472.46 441.133C2457.49 453.547 2446.26 470.25 2438.78 491.244C2431.48 512.054 2427.83 535.33 2427.83 561.07C2427.83 586.627 2431.48 609.811 2438.78 630.622C2446.26 651.433 2457.49 668.045 2472.46 680.458C2487.61 692.689 2506.6 698.805 2529.42 698.805ZM2701.71 294.361V209.201H3149.15V294.361H2975.82V770H2875.05V294.361H2701.71ZM3125.66 770V349.401H3221.77V419.501H3226.15C3233.82 395.221 3246.97 376.51 3265.59 363.366C3284.39 350.04 3305.84 343.377 3329.94 343.377C3335.41 343.377 3341.53 343.65 3348.28 344.198C3355.22 344.563 3360.97 345.202 3365.53 346.115V437.299C3361.33 435.839 3354.67 434.561 3345.54 433.466C3336.6 432.188 3327.93 431.549 3319.53 431.549C3301.46 431.549 3285.21 435.474 3270.79 443.324C3256.55 450.991 3245.32 461.67 3237.11 475.362C3228.89 489.053 3224.79 504.844 3224.79 522.734V770H3125.66ZM3369.7 770V349.401H3468.83V770H3369.7ZM3419.54 289.706C3403.84 289.706 3390.33 284.504 3379.01 274.098C3367.69 263.51 3362.03 250.823 3362.03 236.036C3362.03 221.067 3367.69 208.38 3379.01 197.974C3390.33 187.386 3403.84 182.092 3419.54 182.092C3435.42 182.092 3448.93 187.386 3460.06 197.974C3471.38 208.38 3477.04 221.067 3477.04 236.036C3477.04 250.823 3471.38 263.51 3460.06 274.098C3448.93 284.504 3435.42 289.706 3419.54 289.706ZM3509.07 770V349.401H3603.81V420.87H3608.74C3617.51 396.773 3632.02 377.97 3652.28 364.461C3672.55 350.77 3696.73 343.924 3724.85 343.924C3753.32 343.924 3777.33 350.861 3796.86 364.735C3816.58 378.427 3830.45 397.138 3838.49 420.87H3842.87C3852.18 397.503 3867.88 378.883 3889.96 365.009C3912.24 350.953 3938.61 343.924 3969.1 343.924C4007.8 343.924 4039.38 356.155 4063.85 380.617C4088.31 405.079 4100.54 440.768 4100.54 487.684V770H4001.14V503.018C4001.14 476.913 3994.2 457.837 3980.33 445.788C3966.45 433.557 3949.48 427.442 3929.4 427.442C3905.48 427.442 3886.77 434.926 3873.26 449.896C3859.94 464.682 3853.27 483.941 3853.27 507.673V770H3756.06V498.911C3756.06 477.187 3749.49 459.845 3736.35 446.883C3723.39 433.922 3706.41 427.442 3685.42 427.442C3671.18 427.442 3658.22 431.093 3646.53 438.395C3634.85 445.514 3625.54 455.646 3618.6 468.79C3611.66 481.751 3608.2 496.903 3608.2 514.245V770H3509.07Z" fill="black"/>
</g>
<defs>
<clipPath id="clip0_27_46">
<rect width="4151" height="978" fill="white"/>
</clipPath>
</defs>
</svg>
